#!OML:ASF E:\emotionWalksFemale\Project 1\Capture day 1\Session 1\Female1.ASF
:FULLY-SPECIFIED
:DEGREES
856
root 8.80002 15.179 -30.377 -183.912 8.75712 -176.41
lowerback 9.81746 1.74034 7.66746
upperback -5.57052 3.85447 1.48205
thorax -11.2208 1.41697 -3.44211
lowerneck -4.12949 -0.886717 -3.58441
upperneck 8.14828 -0.98823 2.23823
head 3.39866 -0.460227 1.32652
rclavicle -3.95581e-014 -2.82274e-014
rhumerus -23.0027 4.89213 -58.2194
rradius 59.3917
rwrist 6.68161
rhand -11.2199 -53.3766
rfingers 7.12502
rthumb 14.8086 -442.827
lclavicle -3.95581e-014 -2.82274e-014
lhumerus -66.6717 20.9034 29.5084
lradius 38.0509
lwrist -0.701993
lhand -5.07166 -24.2218
lfingers 7.12502
lthumb 20.7246 4.69159
rfemur 4.85586 3.44944 31.3547
rtibia 34.1573
rfoot -14.8059 -14.2997
rtoes -6.79975
lfemur -22.3904 -2.70292 -20.861
ltibia 29.084
lfoot -22.4148 29.1874
ltoes 30.0545
857
root 8.77213 15.2054 -30.5172 -183.831 8.74317 -176.492
lowerback 9.48283 1.71288 7.78003
upperback -5.75586 3.82652 1.44326
thorax -11.226 1.3969 -3.52995
lowerneck -2.91384 -0.643807 -3.98317
upperneck 7.44063 -0.727425 2.98374
head 2.92862 -0.318026 1.64387
rclavicle 4.27387e-015 -4.85035e-014
rhumerus -23.9083 3.65601 -58.2471
rradius 59.8552
rwrist 7.2193
rhand -11.0094 -52.7725
rfingers 7.12502
rthumb 15.0114 -442.208
lclavicle 4.27387e-015 -4.85035e-014
lhumerus -66.7469 20.7975 29.3241
lradius 37.9885
lwrist -0.679697
lhand -5.20989 -23.8727
lfingers 7.12502
lthumb 20.5917 5.0551
rfemur 4.79926 3.04586 30.8748
rtibia 35.0094
rfoot -14.4237 -13.7291
rtoes -8.73199
lfemur -21.7647 -2.66787 -21.2002
ltibia 28.6583
lfoot -21.5959 29.8212
ltoes 28.725
858
root 8.74454 15.2227 -30.6492 -183.86 8.65687 -176.76
lowerback 9.41736 1.70221 7.66261
upperback -5.73175 3.77204 1.36608
thorax -11.1643 1.37702 -3.53439
lowerneck -3.71126 -0.734954 -3.83264
upperneck 8.07421 -0.810177 2.70099
head 3.29509 -0.35989 1.53024
rclavicle -3.65764e-014 2.14687e-014
rhumerus -24.3361 2.69634 -58.178
rradius 60.3014
rwrist 7.34446
rhand -10.3383 -53.8416
rfingers 7.12502
rthumb 15.6579 -443.228
lclavicle -3.65764e-014 2.14687e-014
lhumerus -66.4632 21.5127 28.9257
lradius 37.4741
lwrist -1.28297
lhand -5.44237 -24.403
lfingers 7.12502
lthumb 20.3683 4.54881
rfemur 4.59745 2.65842 30.2142
rtibia 36.1915
rfoot -13.695 -13.0676
rtoes -9.74241
lfemur -21.0881 -2.68498 -21.7013
ltibia 28.2231
lfoot -21.2892 29.7643
ltoes 30.2874
859
root 8.71395 15.2379 -30.7775 -183.83 8.45963 -177.519
lowerback 9.02876 1.68402 7.05525
upperback -5.81374 3.60508 1.17705
thorax -11.0537 1.33692 -3.35429
lowerneck -2.95944 -0.544408 -3.89534
upperneck 7.66114 -0.580283 2.82583
head 3.00368 -0.244777 1.58353
rclavicle 4.11484e-014 2.82274e-014
rhumerus -25.032 2.28433 -58.1371
rradius 60.8441
rwrist 7.23477
rhand -10.0746 -54.1893
rfingers 7.12502
rthumb 15.9118 -443.556
lclavicle 4.11484e-014 2.82274e-014
lhumerus -66.5549 22.246 28.206
lradius 37.0036
lwrist -2.16952
lhand -5.41003 -25.0135
lfingers 7.12502
lthumb 20.3994 3.93505
rfemur 4.04446 2.15119 28.9513
rtibia 37.7166
rfoot -12.7449 -12.1625
rtoes -10.4353
lfemur -20.4499 -2.81387 -22.7122
ltibia 27.663
lfoot -21.8141 28.845
ltoes 35.5932
860
root 8.68604 15.2479 -30.8869 -183.813 8.30417 -177.492
lowerback 9.08367 1.59615 7.1799
upperback -5.79478 3.5118 1.20588
thorax -11.0723 1.28378 -3.3788
lowerneck -3.19786 -0.673803 -3.90207
upperneck 7.73539 -0.741876 2.72698
head 3.07932 -0.329247 1.54817
rclavicle -3.8763e-014 -6.75868e-015
rhumerus -25.4548 1.89668 -58.0861
rradius 61.2685
rwrist 6.77956
rhand -10.3857 -53.4366
rfingers 7.12502
rthumb 15.6122 -442.827
lclavicle -3.8763e-014 -6.75868e-015
lhumerus -66.1697 21.4998 29.8122
lradius 37.8564
lwrist -0.571536
lhand -5.85018 -24.5957
lfingers 7.12502
lthumb 19.9764 4.39748
rfemur 3.29888 1.71732 28.6212
rtibia 39.5449
rfoot -11.4761 -11.333
rtoes -9.8544
lfemur -19.8628 -2.77266 -22.8644
ltibia 27.1182
lfoot -21.5564 28.0907
ltoes 38.8093
861
root 8.65329 15.2696 -31.0112 -183.669 8.16457 -177.878
lowerback 8.73965 1.55904 6.99983
upperback -5.93984 3.41245 1.0947
thorax -11.0401 1.24789 -3.36936
lowerneck -2.72064 -0.753428 -3.73413
upperneck 7.60233 -0.837264 2.31968
head 2.94064 -0.384911 1.37729
rclavicle -4.17448e-015 0
rhumerus -26.2802 1.64422 -58.0379
rradius 61.7375
rwrist 6.3058
rhand -10.7417 -52.7554
rfingers 7.12502
rthumb 15.2693 -442.172
lclavicle -4.17448e-015 0
lhumerus -66.049 21.9099 29.7306
lradius 37.6368
lwrist -0.910917
lhand -6.2717 -25.0987
lfingers 7.12502
lthumb 19.5712 3.93622
rfemur 2.33299 1.10634 27.6614
rtibia 41.6277
rfoot -10.1884 -10.2115
rtoes -9.00912
lfemur -19.3667 -2.54229 -23.5732
ltibia 26.5432
lfoot -19.9451 28.5563
ltoes 36.6278
862
root 8.63132 15.2922 -31.1223 -183.741 7.98215 -178.145
lowerback 8.79976 1.5266 6.84412
upperback -6.00635 3.34427 0.988922
thorax -11.1586 1.21497 -3.39001
lowerneck -2.7429 -0.731079 -4.17663
upperneck 7.85714 -0.823212 3.00262
head 3.04499 -0.363323 1.68554
rclavicle -5.96354e-016 -6.75868e-015
rhumerus -27.2748 1.15241 -58.0292
rradius 62.2355
rwrist 5.70409
rhand -10.6069 -53.0616
rfingers 7.12502
rthumb 15.3992 -442.468
lclavicle -5.96354e-016 -6.75868e-015
lhumerus -65.6723 22.117 30.1321
lradius 37.7663
lwrist -0.707607
lhand -6.61168 -24.4619
lfingers 7.12502
lthumb 19.2443 4.60595
rfemur 1.38693 0.643294 26.9847
rtibia 43.8177
rfoot -8.56665 -9.33047
rtoes -8.22113
lfemur -18.8597 -2.1334 -24.1167
ltibia 26.1765
lfoot -18.0079 29.2502
ltoes 32.1816
863
root 8.60345 15.3109 -31.2324 -183.823 7.76991 -178.581
lowerback 8.8392 1.4732 6.54333
upperback -5.98441 3.20929 0.864997
thorax -11.1748 1.163 -3.33398
lowerneck -2.91634 -0.755404 -4.19939
upperneck 7.94905 -0.852189 3.03621
head 3.1112 -0.376789 1.7016
rclavicle -1.83876e-014 -2.0276e-014
rhumerus -28.0581 0.829034 -58.0605
rradius 62.5579
rwrist 4.78499
rhand -10.4781 -53.5719
rfingers 7.12502
rthumb 15.5233 -442.969
lclavicle -1.83876e-014 -2.0276e-014
lhumerus -65.2451 22.4065 30.7634
lradius 37.9665
lwrist -0.493426
lhand -6.89825 -23.8458
lfingers 7.12502
lthumb 18.9687 5.24927
rfemur 0.322326 0.160976 26.0348
rtibia 46.1526
rfoot -6.83027 -8.42379
rtoes -6.55407
lfemur -18.2933 -1.78407 -24.8585
ltibia 25.8218
lfoot -17.2365 29.1619
ltoes 30.7506
864
root 8.57386 15.3203 -31.343 -183.904 7.56693 -178.781
lowerback 9.02057 1.42057 6.52371
upperback -6.03633 3.14861 0.816448
thorax -11.3481 1.12453 -3.37481
lowerneck -2.86102 -0.898186 -4.1687
upperneck 7.97505 -1.02138 2.71818
head 3.11198 -0.47075 1.58426
rclavicle -1.2424e-014 2.14687e-014
rhumerus -28.9211 0.862947 -57.9396
rradius 62.8042
rwrist 3.93561
rhand -10.7742 -53.1435
rfingers 7.12502
rthumb 15.238 -442.562
lclavicle -1.2424e-014 2.14687e-014
lhumerus -64.7756 23.1085 30.866
lradius 37.5724
lwrist -1.13526
lhand -7.04144 -24.3734
lfingers 7.12502
lthumb 18.831 4.73511
rfemur -0.740116 -0.381188 25.2996
rtibia 48.5853
rfoot -5.27137 -7.52125
rtoes -6.53591
lfemur -17.6578 -1.56511 -25.3233
ltibia 25.531
lfoot -17.6591 28.4976
ltoes 33.3513
865
root 8.5472 15.3256 -31.4481 -184.016 7.37826 -178.897
lowerback 9.24585 1.33069 6.48577
upperback -5.92005 3.01952 0.8064
thorax -11.3659 1.06067 -3.3481
lowerneck -2.98973 -0.897726 -4.1744
upperneck 7.70315 -1.0273 2.69377
head 3.04322 -0.479768 1.57461
rclavicle -1.19271e-015 -1.15295e-014
rhumerus -29.4182 -0.0355061 -57.8314
rradius 62.9564
rwrist 4.30421
rhand -11.0426 -52.4268
rfingers 7.12502
rthumb 14.9795 -441.865
lclavicle -1.19271e-015 -1.15295e-014
lhumerus -64.0795 23.6754 31.5533
lradius 37.3003
lwrist -1.06492
lhand -7.37558 -24.8355
lfingers 7.12502
lthumb 18.5096 4.3039
rfemur -1.85789 -0.915514 24.6929
rtibia 51.1054
rfoot -3.90846 -6.65431
rtoes -8.09161
lfemur -17.0142 -1.33527 -25.6913
ltibia 25.2594
lfoot -17.9802 28.1151
ltoes 35.1963
866
root 8.52261 15.3321 -31.5519 -184.168 7.14866 -179.209
lowerback 9.23861 1.26783 6.20479
upperback -5.86505 2.8767 0.753873
thorax -11.3193 1.01108 -3.22038
lowerneck -2.53978 -0.884857 -4.35605
upperneck 7.26822 -1.04217 2.99746
head 2.81807 -0.485674 1.70166
rclavicle 2.48481e-014 5.1684e-014
rhumerus -30.092 -0.723634 -57.6383
rradius 63.0515
rwrist 4.9533
rhand -11.2017 -52.4228
rfingers 7.12502
rthumb 14.8261 -441.872
lclavicle 2.48481e-014 5.1684e-014
lhumerus -63.8404 23.8827 32.4547
lradius 38.165
lwrist -0.943265
lhand -7.46843 -24.5841
lfingers 7.12502
lthumb 18.4203 4.56379
rfemur -3.01653 -1.42413 23.8818
rtibia 53.6859
rfoot -2.576 -5.95292
rtoes -8.22513
lfemur -16.3704 -1.04858 -26.2744
ltibia 25.0406
lfoot -18.1095 27.7874
ltoes 35.8027
867
root 8.49883 15.3369 -31.6482 -184.358 6.88448 -179.478
lowerback 9.4255 1.18823 5.87766
upperback -5.75883 2.71666 0.746063
thorax -11.3365 0.954817 -3.02137
lowerneck -2.6488 -0.84965 -4.70441
upperneck 7.21925 -1.00151 3.36207
head 2.83011 -0.464387 1.88696
rclavicle -8.94531e-016 -2.3059e-014
rhumerus -30.6911 -0.938185 -57.5633
rradius 63.2071
rwrist 4.69951
rhand -13.4365 -52.4549
rfingers 7.12502
rthumb 12.6724 -442.05
lclavicle -8.94531e-016 -2.3059e-014
lhumerus -63.3346 25.6324 31.9832
lradius 37.1192
lwrist -2.56938
lhand -7.74268 -25.6474
lfingers 7.12502
lthumb 18.1564 3.52516
rfemur -4.20452 -1.83535 23.1579
rtibia 56.3189
rfoot -1.40607 -5.24557
rtoes -8.8181
lfemur -15.7297 -0.699558 -26.8049
ltibia 24.8659
lfoot -18.2213 27.2157
ltoes 36.5356
868
root 8.47505 15.3357 -31.734 -184.485 6.68138 -179.52
lowerback 9.74758 1.07477 5.73005
upperback -5.68255 2.56087 0.814382
thorax -11.4668 0.887631 -2.84597
lowerneck -2.8429 -0.847654 -5.18969
upperneck 7.20233 -0.996856 3.76144
head 2.87337 -0.463449 2.10994
rclavicle -2.41523e-014 -1.47101e-014
rhumerus -31.3141 -1.13957 -57.6145
rradius 63.3659
rwrist 4.20953
rhand -16.6267 -52.5854
rfingers 7.12502
rthumb 9.59554 -442.347
lclavicle -2.41523e-014 -1.47101e-014
lhumerus -62.6576 25.5988 33.3798
lradius 37.5045
lwrist -2.40776
lhand -7.80911 -25.8747
lfingers 7.12502
lthumb 18.0925 3.30379
rfemur -5.54074 -2.14139 22.7561
rtibia 58.9283
rfoot -0.447772 -4.31957
rtoes -12.5356
lfemur -15.2085 -0.140069 -27.1106
ltibia 24.6931
lfoot -17.4582 27.0903
ltoes 34.9241
869
root 8.45497 15.3276 -31.8195 -184.544 6.51828 -179.629
lowerback 9.86072 1.01575 5.5527
upperback -5.72356 2.46937 0.840799
thorax -11.5966 0.85435 -2.70556
lowerneck -2.23576 -0.914805 -5.50785
upperneck 6.79114 -1.10865 3.95303
head 2.63476 -0.525256 2.2215
rclavicle -1.50082e-014 -3.37934e-014
rhumerus -32.2777 -1.54315 -57.5578
rradius 63.6155
rwrist 4.50468
rhand -16.7408 -53.8527
rfingers 7.12502
rthumb 9.48548 -443.619
lclavicle -1.50082e-014 -3.37934e-014
lhumerus -62.0353 25.3622 34.8144
lradius 37.9129
lwrist -2.06683
lhand -8.02002 -25.5965
lfingers 7.12502
lthumb 17.8896 3.60069
rfemur -7.02252 -2.25533 22.3825
rtibia 61.5662
rfoot 0.082963 -3.727
rtoes -13.5103
lfemur -14.7239 0.382143 -27.4433
ltibia 24.3652
lfoot -16.7049 26.9823
ltoes 32.23
